PathFileType	4	(X/Y/Z)	/Users/visionmauri/Downloads/Videos/OAW13-top_Sports2D/OAW13-top_Sports2D_m_person00.trc
DataRate	CameraRate	NumFrames	NumMarkers	Units	OrigDataRate	OrigDataStartFrame	OrigNumFrames
27.0	27.0	7	22	m	27.0	247	1977
Frame#	Time	Hip			RHip			RKnee			RAnkle			RBigToe			RSmallToe			RHeel			LHip			LKnee			LAnkle			LBigToe			LSmallToe			LHeel			Neck			Head			Nose			RShoulder			RElbow			RWrist			LShoulder			LElbow			LWrist			
		X1	Y1	Z1	X2	Y2	Z2	X3	Y3	Z3	X4	Y4	Z4	X5	Y5	Z5	X6	Y6	Z6	X7	Y7	Z7	X8	Y8	Z8	X9	Y9	Z9	X10	Y10	Z10	X11	Y11	Z11	X12	Y12	Z12	X13	Y13	Z13	X14	Y14	Z14	X15	Y15	Z15	X16	Y16	Z16	X17	Y17	Z17	X18	Y18	Z18	X19	Y19	Z19	X20	Y20	Z20	X21	Y21	Z21	X22	Y22	Z22
247	9.152777777777779	4.189250310475218	0.16205536591697287	0.0301	4.172320258215589	0.19249483220988864	0.0301	4.047797274611727	0.1558335570967058	0.129	3.9392278517502364	0.1218758413010772	0.023	3.8972046944554184	0.0974054086678441	0.2179	3.893313289767724	0.11882845587865554	0.1804	3.9226330570016548	0.11413297940229558	-0.0119	4.19202031690458	0.12535729934714934	0.0301	4.068186901640291	0.0863594545720744	0.129	3.958355488389158	0.07278445027689341	0.023	3.9082382952051153	0.06732351985674069	0.2179	3.916571907804815	0.05054005787064821	0.1804	3.9388774667287207	0.07514919453952422	-0.0119	4.375125448269113	0.20427711067869433	0.0008	4.4514845603557385	0.22191689264064307	0.0655	4.377705977855742	0.19888849150932122	0.1076	4.3391000802712005	0.26387057684916365	-0.01275	4.2531131975312695	0.2923854176512925	0.0702	4.168104089779368	0.28759773822478807	0.1076	4.375522042900925	0.14312796968294778	-0.01275	4.278093474949024	0.09599412777657247	0.0702	4.190229336558228	0.06149913403481598	0.1076
248	9.189833558254612	4.187976937744083	0.16257974885119733	0.0301	4.172100074586356	0.19340911289743046	0.0301	4.047157889900285	0.15570621753897806	0.129	3.9366617774173083	0.11918424759470954	0.023	3.893449813683278	0.09262335730329552	0.2179	3.889218955120028	0.11440409935007717	0.1804	3.919996405239965	0.11185497169675364	-0.0119	4.1916178298297275	0.1263669307390969	0.0301	4.066985704108599	0.08550416351697133	0.129	3.9575148150971704	0.0729979218176233	0.023	3.9079149865069707	0.06671534159510996	0.2179	3.9163510174735254	0.05067237861771873	0.1804	3.9379252311359627	0.07550277653023306	-0.0119	4.373551678747439	0.20329448229480665	0.0008	4.448885779226637	0.22049582117958202	0.0655	4.373162181437502	0.19736784939012042	0.1076	4.3381347603355325	0.263730107355571	-0.01275	4.256350149427211	0.29753695852783085	0.0702	4.170952155621079	0.29436329730060434	0.1076	4.374341907872298	0.14355477187109886	-0.01275	4.27748063860145	0.09589492561114411	0.0702	4.190016176256138	0.061469577478087456	0.1076
249	9.226889338731445	4.186083309429397	0.16327775142045178	0.0301	4.169996943106116	0.1932802756564634	0.0301	4.046915411813346	0.15474865791237907	0.129	3.933745956004691	0.11458145666846356	0.023	3.8910251121547454	0.08755593669474529	0.2179	3.8864724525795307	0.10854122570009175	0.1804	3.9161314772915246	0.10765267410794147	-0.0119	4.189282649704819	0.12743953783611675	0.0301	4.064791056882935	0.08577894470898018	0.129	3.9569798311344715	0.07322167873546213	0.023	3.908019372117078	0.06563375045591863	0.2179	3.916228156933255	0.05070037115783559	0.1804	3.936404046267106	0.07526958192653309	-0.0119	4.3711684736958105	0.2032714678031161	0.0008	4.44637059601773	0.22079420994966306	0.0655	4.371557378222171	0.19711149400836145	0.1076	4.336437497151687	0.2643504779506917	-0.01275	4.2601818435797	0.3029106671926126	0.0702	4.174559215206831	0.29991274924197925	0.1076	4.3730090717183625	0.1433733582455751	-0.01275	4.277229256002346	0.09594818318083312	0.0702	4.191017316027975	0.0623056181932716	0.1076
250	9.263945119208278	4.184239250596488	0.16339939471224213	0.0301	4.167559080370119	0.19242560667675276	0.0301	4.046460092684308	0.1528110569123206	0.129	3.9318656311595	0.10921859739321181	0.023	3.8906762707361744	0.08264539306000558	0.2179	3.8855662390750356	0.10291687047769177	0.1804	3.912935751332493	0.1030107751695105	-0.0119	4.186496190056795	0.12728851592000728	0.0301	4.062228467000584	0.08647039868443918	0.129	3.9563739541211733	0.07323097594024891	0.023	3.9082679448972697	0.06423825330173143	0.2179	3.916004720722279	0.05030143598214931	0.1804	3.9351817061065635	0.07392559569590798	-0.0119	4.369532734403806	0.2041382026689299	0.0008	4.444893877127566	0.22219303040353358	0.0655	4.372181030529872	0.19766329090035842	0.1076	4.334768597598385	0.266143628740336	-0.01275	4.263695294928795	0.30656185676277353	0.0702	4.179243032559217	0.3045224151573816	0.1076	4.371840575960701	0.1426973440911718	-0.01275	4.278167807579024	0.09626155896519438	0.0702	4.193875976306506	0.06503919315961784	0.1076
251	9.30100089968511	4.183162670752693	0.16283825303650806	0.0301	4.166695927158303	0.19149616703344566	0.0301	4.045986089856691	0.15038411084107545	0.129	3.9322008846063046	0.1051279736550836	0.023	3.891792176236949	0.07817930048286165	0.2179	3.8857484323153164	0.09890163881845422	0.1804	3.9119886461110647	0.09976077388953795	-0.0119	4.185005827598145	0.1263791049355314	0.0301	4.059837945167224	0.08709131350569353	0.129	3.9552245884084574	0.0728882214024164	0.023	3.9076694255806164	0.06308721197428879	0.2179	3.9152983095578806	0.04950497968718485	0.1804	3.9344034962565155	0.07164605342774531	-0.0119	4.369140754005118	0.20546342458090427	0.0008	4.446586140254935	0.22461513241067518	0.0655	4.374614579686351	0.19913590300177283	0.1076	4.333843946650324	0.26841724175518755	-0.01275	4.266450550635943	0.3080219207939129	0.0702	4.18380420987684	0.3085473810595938	0.1076	4.3712015068365915	0.14287392449443226	-0.01275	4.280632971989252	0.09687977521009698	0.0702	4.198767483292987	0.06937717537587951	0.1076
252	9.338056680161944	4.182756150417064	0.1621214356353231	0.0301	4.167236513174916	0.19076670533263854	0.0301	4.046725475369653	0.1478940179503565	0.129	3.9331922265097505	0.10211308996134424	0.023	3.892171535609989	0.07426118317874855	0.2179	3.88529546794554	0.09552701696304372	0.1804	3.911670309937765	0.09714444440254014	-0.0119	4.1848581981944015	0.12639206081849444	0.0301	4.058627822717301	0.08816312496013481	0.129	3.9538915973912614	0.07207484442461896	0.023	3.9063524076426823	0.06254732855723623	0.2179	3.914282983007495	0.048709671568254405	0.1804	3.932998314962408	0.06901124035290153	-0.0119	4.368812492670024	0.2072641433370704	0.0008	4.449812292824656	0.22732306371878425	0.0655	4.377867819877791	0.20179932185632274	0.1076	4.333914309853792	0.27034065227158355	-0.01275	4.26899634007238	0.30920336075382054	0.0702	4.186880787507238	0.3117070965487861	0.1076	4.371542480295297	0.1440318658742828	-0.01275	4.28399754281197	0.09724637152550952	0.0702	4.204615835113017	0.07387370558138501	0.1076
253	9.375112460638777	4.182544620849925	0.1615753441911243	0.0301	4.167683134510826	0.19023961598147376	0.0301	4.047945865524423	0.14558450761947345	0.129	3.9322211378596057	0.09906361394346953	0.023	3.890605350740998	0.07105507593191983	0.2179	3.8833309669389413	0.09174583787616152	0.1804	3.909729716664506	0.0937535470822885	-0.0119	4.184994681257295	0.12750854970537462	0.0301	4.058785608614369	0.08934155933659274	0.129	3.952896828518318	0.07102536370151072	0.023	3.90499783319012	0.06228273343795984	0.2179	3.913364476643975	0.048237234247312785	0.1804	3.930589750270432	0.06669761263759408	-0.0119	4.368305681846946	0.20973567813584962	0.0008	4.4506935899502045	0.2295124267080238	0.0655	4.380056458576721	0.2050732595112321	0.1076	4.334442851655156	0.2717666107281148	-0.01275	4.270441646251138	0.3114489090997477	0.0702	4.187698199682894	0.31323248938933257	0.1076	4.372520327552564	0.1455664508736564	-0.01275	4.287351965097907	0.09708309193985594	0.0702	4.210248145869274	0.07768746172381007	0.1076
